<svg width="24" height="24" viewBox="0 0 24 24" fill="none" xmlns="http://www.w3.org/2000/svg">
<g id="&#237;&#131;&#145;&#236;&#149;&#177;&#235;&#176;&#148;/&#237;&#131;&#145;&#236;&#149;&#177;&#235;&#176;&#148;8">
<path id="Rectangle 1" d="M5.80851 8.51904C6.17092 5.37377 8.83392 3 12 3V3C15.1661 3 17.8291 5.37377 18.1915 8.51904L18.443 10.7021C18.4609 10.857 18.4698 10.9344 18.4801 11.0108C18.6243 12.0803 18.9834 13.1097 19.5358 14.0368C19.5752 14.103 19.6164 14.1692 19.6987 14.3015L20.3319 15.3191C20.9594 16.3276 21.2731 16.8318 21.17 17.2432C21.1274 17.4132 21.0408 17.5691 20.9189 17.6951C20.6241 18 20.0302 18 18.8425 18H5.15753C3.96977 18 3.3759 18 3.0811 17.6951C2.95923 17.5691 2.87264 17.4132 2.83001 17.2432C2.72689 16.8318 3.04064 16.3276 3.66813 15.3191L4.30126 14.3015C4.38361 14.1692 4.42478 14.103 4.46423 14.0368C5.01663 13.1097 5.37572 12.0803 5.5199 11.0108C5.53019 10.9344 5.53911 10.857 5.55696 10.7021L5.80851 8.51904Z" stroke="#222222" stroke-width="1.5"/>
<path id="Ellipse 45" d="M8.1363 19.0353C8.3642 19.8858 8.86638 20.6374 9.56495 21.1734C10.2635 21.7094 11.1195 22 12 22C12.8805 22 13.7365 21.7095 14.435 21.1734C15.1336 20.6374 15.6358 19.8858 15.8637 19.0353" stroke="#222222" stroke-width="1.5" stroke-linecap="round"/>
</g>
</svg>
