<svg width="18" height="15" viewBox="0 0 18 15" fill="none" xmlns="http://www.w3.org/2000/svg">
<path d="M2.88993 8.38779L8.532 13.5701C8.65374 13.682 8.71461 13.7379 8.77896 13.7696C8.91832 13.8383 9.08168 13.8383 9.22104 13.7696C9.28539 13.7379 9.34626 13.682 9.468 13.5701L15.1101 8.38779C16.7388 6.89178 16.9355 4.39185 15.5609 2.65947L15.3575 2.40314C13.7373 0.36133 10.5414 0.708918 9.398 3.05129C9.2362 3.38277 8.7638 3.38277 8.602 3.05129C7.45864 0.708918 4.26266 0.36133 2.64249 2.40314L2.4391 2.65947C1.06446 4.39185 1.26121 6.89178 2.88993 8.38779Z" fill="#FF8888" stroke="#FF8888" stroke-width="1.5"/>
</svg>
