<svg width="25" height="24" viewBox="0 0 25 24" fill="none" xmlns="http://www.w3.org/2000/svg">
<g id="heroicons-solid:chat-alt">
<g id="Group 166">
<path id="Vector" d="M5.30078 4.3501H19.7002C20.0832 4.3501 20.4525 4.48346 20.7461 4.72412L20.8672 4.8335C21.1766 5.14292 21.3506 5.56293 21.3506 6.00049V15.6001C21.3506 15.9831 21.2172 16.3524 20.9766 16.646L20.8672 16.7671C20.5578 17.0765 20.1378 17.2505 19.7002 17.2505H13.4375L13.2314 17.4146L8.4502 21.2388V17.2505H5.30078C4.91793 17.2505 4.54847 17.117 4.25488 16.8765L4.13379 16.7671C3.82435 16.4577 3.65039 16.0377 3.65039 15.6001V6.00049L3.6582 5.8374C3.69029 5.51346 3.81809 5.20637 4.02441 4.95459L4.13379 4.8335C4.40464 4.56264 4.75982 4.39533 5.1377 4.35791L5.30078 4.3501Z" stroke="#585858" stroke-width="1.5"/>
<rect id="Rectangle 33029" x="7.5" y="9.7998" width="2" height="2" fill="#585858"/>
<rect id="Rectangle 33030" x="11.5" y="9.7998" width="2" height="2" fill="#585858"/>
<rect id="Rectangle 33031" x="15.5" y="9.7998" width="2" height="2" fill="#585858"/>
</g>
</g>
</svg>
