<svg width="25" height="24" viewBox="0 0 25 24" fill="none" xmlns="http://www.w3.org/2000/svg">
<g id="heroicons-solid:chat-alt">
<g id="Group 166">
<path id="Vector" d="M5.30078 4.34961H19.7002C20.1378 4.34961 20.5578 4.52357 20.8672 4.83301C21.1766 5.14243 21.3506 5.56244 21.3506 6V15.5996C21.3506 16.0372 21.1766 16.4572 20.8672 16.7666C20.5578 17.076 20.1378 17.25 19.7002 17.25H13.4375L13.2314 17.4141L8.4502 21.2383V17.25H5.30078C4.86327 17.25 4.44321 17.0759 4.13379 16.7666C3.82435 16.4572 3.65039 16.0372 3.65039 15.5996V6L3.6582 5.83691C3.69563 5.45904 3.86294 5.10386 4.13379 4.83301C4.40464 4.56215 4.75982 4.39485 5.1377 4.35742L5.30078 4.34961Z" fill="#5F4AFF" stroke="#5F4AFF" stroke-width="1.5"/>
<rect id="Rectangle 33029" x="7.5" y="9.79883" width="2" height="2" fill="white"/>
<rect id="Rectangle 33030" x="11.5" y="9.79883" width="2" height="2" fill="white"/>
<rect id="Rectangle 33031" x="15.5" y="9.79883" width="2" height="2" fill="white"/>
</g>
</g>
</svg>
