<svg width="25" height="24" viewBox="0 0 25 24" fill="none" xmlns="http://www.w3.org/2000/svg">
<g id="icon-park-solid:people">
<path id="Vector" d="M12.5 10C12.9596 10 13.4148 9.90947 13.8394 9.73358C14.264 9.55769 14.6499 9.29988 14.9749 8.97487C15.2999 8.64987 15.5577 8.26403 15.7336 7.83939C15.9095 7.41475 16 6.95963 16 6.5C16 6.04037 15.9095 5.58525 15.7336 5.16061C15.5577 4.73597 15.2999 4.35013 14.9749 4.02513C14.6499 3.70012 14.264 3.44231 13.8394 3.26642C13.4148 3.09053 12.9596 3 12.5 3C11.5717 3 10.6815 3.36875 10.0251 4.02513C9.36875 4.6815 9 5.57174 9 6.5C9 7.42826 9.36875 8.3185 10.0251 8.97487C10.6815 9.63125 11.5717 10 12.5 10ZM3.5 20.4V21H21.5V20.4C21.5 18.16 21.5 17.04 21.064 16.184C20.6805 15.4314 20.0686 14.8195 19.316 14.436C18.46 14 17.34 14 15.1 14H9.9C7.66 14 6.54 14 5.684 14.436C4.93139 14.8195 4.31949 15.4314 3.936 16.184C3.5 17.04 3.5 18.16 3.5 20.4Z" fill="#5F4AFF"/>
</g>
</svg>
